<svg width="192" height="60" viewBox="0 0 192 60" fill="none" xmlns="http://www.w3.org/2000/svg">
<path d="M1.24756 52.1853L0.247561 52.1853L0.247576 53.1853L1.24756 53.1852L1.24756 52.1853ZM191.208 52.8921C191.598 52.5015 191.598 51.8684 191.208 51.4778L184.844 45.1139C184.453 44.7234 183.82 44.7234 183.43 45.1139C183.039 45.5044 183.039 46.1376 183.43 46.5281L189.087 52.185L183.43 57.8418C183.039 58.2323 183.039 58.8655 183.43 59.256C183.82 59.6466 184.453 59.6465 184.844 59.256L191.208 52.8921ZM0.246581 0.500052L0.247561 52.1853L2.24755 52.1852L2.24658 0.500013L0.246581 0.500052ZM1.24756 53.1852L190.501 53.185L190.501 51.1849L1.24755 51.1853L1.24756 53.1852Z" fill="#C7C7C7"/>
</svg>
